<svg width="1200" height="300" viewBox="0 0 1200 300" xmlns="http://www.w3.org/2000/svg">
  <defs>
    <linearGradient id="bg" x1="0%" y1="0%" x2="100%" y2="100%">
      <stop offset="0%" stop-color="#0B1120"/>
      <stop offset="100%" stop-color="#121A2B"/>
    </linearGradient>
    <pattern id="grid" width="40" height="40" patternUnits="userSpaceOnUse">
      <path d="M 40 0 L 0 0 0 40" fill="none" stroke="#5EEAD4" stroke-opacity="0.06" stroke-width="1"/>
    </pattern>
    <linearGradient id="fade" x1="0%" y1="0%" x2="100%" y2="0%">
      <stop offset="0%" stop-color="#0B1120" stop-opacity="1"/>
      <stop offset="60%" stop-color="#0B1120" stop-opacity="0"/>
    </linearGradient>
  </defs>

  <rect width="1200" height="300" fill="url(#bg)"/>
  <rect width="1200" height="300" fill="url(#grid)"/>

  <!-- terminal window top right -->
  <g transform="translate(760,55)">
    <rect width="380" height="190" rx="10" fill="#121A2B" stroke="#223049" stroke-width="1.5"/>
    <rect width="380" height="34" rx="10" fill="#182238"/>
    <rect width="380" height="17" y="17" fill="#182238"/>
    <circle cx="20" cy="17" r="5" fill="#FF5F56"/>
    <circle cx="38" cy="17" r="5" fill="#FFBD2E"/>
    <circle cx="56" cy="17" r="5" fill="#27C93F"/>
    <text x="20" y="65" font-family="JetBrains Mono, monospace" font-size="13" fill="#5EEAD4">harsha@dev ~ %</text>
    <text x="20" y="65" font-family="JetBrains Mono, monospace" font-size="13" fill="#E4E9F2"><tspan dx="118">whoami</tspan></text>
    <text x="20" y="90" font-family="JetBrains Mono, monospace" font-size="12.5" fill="#8794A8">Software Engineer Intern @ Visa</text>
    <text x="20" y="115" font-family="JetBrains Mono, monospace" font-size="13" fill="#5EEAD4">harsha@dev ~ %</text>
    <text x="20" y="115" font-family="JetBrains Mono, monospace" font-size="13" fill="#E4E9F2"><tspan dx="118">./ship.sh</tspan></text>
    <text x="20" y="140" font-family="JetBrains Mono, monospace" font-size="12.5" fill="#8794A8">status: building real-world software ✅</text>
    <rect x="20" y="150" width="8" height="15" fill="#5EEAD4"/>
  </g>

  <!-- left side text -->
  <text x="60" y="120" font-family="Space Grotesk, sans-serif" font-weight="700" font-size="46" fill="#E4E9F2">Harshasri Buddi</text>
  <text x="60" y="158" font-family="JetBrains Mono, monospace" font-size="17" fill="#5EEAD4">Software Engineer Intern @ Visa</text>
  <text x="60" y="188" font-family="Inter, sans-serif" font-size="15" fill="#8794A8">AI · Backend Engineering · Competitive Programming</text>

  <g font-family="JetBrains Mono, monospace" font-size="12" fill="#FBBF24">
    <rect x="60" y="212" width="90" height="26" rx="13" fill="#182238" stroke="#223049"/>
    <text x="105" y="229" text-anchor="middle" fill="#E4E9F2">C++</text>
    <rect x="160" y="212" width="100" height="26" rx="13" fill="#182238" stroke="#223049"/>
    <text x="210" y="229" text-anchor="middle" fill="#E4E9F2">Python</text>
    <rect x="270" y="212" width="90" height="26" rx="13" fill="#182238" stroke="#223049"/>
    <text x="315" y="229" text-anchor="middle" fill="#E4E9F2">Java</text>
    <rect x="370" y="212" width="110" height="26" rx="13" fill="#182238" stroke="#223049"/>
    <text x="425" y="229" text-anchor="middle" fill="#E4E9F2">React</text>
  </g>
</svg>
